<?xml version="1.0" encoding="UTF-8"?>
<svg xmlns="http://www.w3.org/2000/svg" id="Outline" viewBox="0 0 512 512" width="512" height="512"><path d="M504,384H488a8,8,0,0,1,0-16h16"/><path d="M56,80h80a8,8,0,0,0,0-16H56a8,8,0,0,0,0,16Z"/><path d="M56,112H184a8,8,0,0,0,0-16H56a8,8,0,0,0,0,16Z"/><path d="M120,144H56a8,8,0,0,0-8,8v64a8,8,0,0,0,8,8h64a8,8,0,0,0,8-8V152A8,8,0,0,0,120,144Zm-19.313,16L64,196.687V160ZM75.313,208,112,171.313V208Z"/><path d="M144,152a8,8,0,0,0,8,8H344a8,8,0,0,0,0-16H152A8,8,0,0,0,144,152Z"/><path d="M344,176H152a8,8,0,0,0,0,16H344a8,8,0,0,0,0-16Z"/><path d="M152,224H264a8,8,0,0,0,0-16H152a8,8,0,0,0,0,16Z"/><path d="M120,256H56a8,8,0,0,0-8,8v64a8,8,0,0,0,8,8h64a8,8,0,0,0,8-8V264A8,8,0,0,0,120,256Zm-19.313,16L64,308.687V272ZM75.313,320,112,283.313V320Z"/><path d="M288,256H152a8,8,0,0,0,0,16H288a8,8,0,0,0,0-16Z"/><path d="M248,288H152a8,8,0,0,0,0,16h96a8,8,0,0,0,0-16Z"/><path d="M152,336h64a8,8,0,0,0,0-16H152a8,8,0,0,0,0,16Z"/><path d="M120,368H56a8,8,0,0,0-8,8v64a8,8,0,0,0,8,8h64a8,8,0,0,0,8-8V376A8,8,0,0,0,120,368Zm-8,64H64V384h48Z"/><path d="M232,368H152a8,8,0,0,0,0,16h80a8,8,0,0,0,0-16Z"/><path d="M232,400H152a8,8,0,0,0,0,16h80a8,8,0,0,0,0-16Z"/><path d="M192,432H152a8,8,0,0,0,0,16h40a8,8,0,0,0,0-16Z"/><path d="M400,256.273V56a40.045,40.045,0,0,0-40-40H8a8,8,0,0,0-8,8V488a8,8,0,0,0,8,8H392a120,120,0,0,0,8-239.727Zm65.539,181.953a8,8,0,0,0-11.313,11.313l5.4,5.4A103.552,103.552,0,0,1,400,479.7V472a8,8,0,0,0-16,0V479.7a103.552,103.552,0,0,1-59.628-24.753l5.4-5.4a8,8,0,0,0-11.313-11.313l-5.4,5.4A103.552,103.552,0,0,1,288.305,384H296a8,8,0,0,0,0-16h-7.695a103.552,103.552,0,0,1,24.753-59.628l5.4,5.4a8,8,0,0,0,11.313-11.313l-5.4-5.4A103.552,103.552,0,0,1,384,272.305V280a8,8,0,0,0,16,0v-7.695a103.552,103.552,0,0,1,59.628,24.753l-5.4,5.4a8,8,0,1,0,11.313,11.313l5.4-5.4a103.788,103.788,0,0,1,0,135.256ZM384,56V80H352V48A31.793,31.793,0,0,0,347.7,32H360A24.028,24.028,0,0,1,384,56ZM16,480V32H320a16.019,16.019,0,0,1,16,16V88a8,8,0,0,0,8,8h40V256.273A119.977,119.977,0,0,0,332.184,480Z"/><path d="M456,368H400V328a8,8,0,0,0-16,0v48a8,8,0,0,0,8,8h64a8,8,0,0,0,0-16Z"/></svg>
