<svg id="Capa_1" enable-background="new 0 0 503.871 503.871" height="512" viewBox="0 0 503.871 503.871" width="512" xmlns="http://www.w3.org/2000/svg"><g><g><g><path d="m474.348 45.268h-15.746v-9.84c0-5.435-4.407-9.841-9.841-9.841s-9.841 4.406-9.841 9.841v9.841h-29.524v-9.841c0-5.435-4.407-9.841-9.841-9.841s-9.841 4.406-9.841 9.841v9.841h-29.524v-9.841c0-5.435-4.407-9.841-9.841-9.841s-9.841 4.406-9.841 9.841v9.841h-29.524v-9.841c0-5.435-4.407-9.841-9.841-9.841s-9.841 4.406-9.841 9.841v9.841h-29.524v-9.841c0-5.435-4.407-9.841-9.841-9.841s-9.841 4.406-9.841 9.841v9.841h-29.524v-9.841c0-5.435-4.406-9.841-9.841-9.841s-9.841 4.406-9.841 9.841v9.841h-29.524v-9.841c0-5.435-4.406-9.841-9.841-9.841s-9.841 4.406-9.841 9.841v9.841h-29.524v-9.841c0-5.435-4.406-9.841-9.841-9.841s-9.841 4.406-9.841 9.841v9.841h-29.526v-9.841c0-5.435-4.406-9.841-9.841-9.841s-9.841 4.406-9.841 9.841v9.841h-15.746c-16.28 0-29.524 13.244-29.524 29.523v373.969c0 16.279 13.244 29.524 29.524 29.524h444.824c16.279 0 29.524-13.244 29.524-29.524v-373.97c-.001-16.279-13.245-29.523-29.524-29.523zm0 413.334h-444.824c-5.426 0-9.841-4.415-9.841-9.841v-305.079h187.964c5.435 0 9.841-4.406 9.841-9.841s-4.406-9.841-9.841-9.841h-187.965v-49.209c0-5.426 4.415-9.841 9.841-9.841h15.747v27.067c0 5.435 4.406 9.841 9.841 9.841s9.841-4.406 9.841-9.841v-27.067h29.524v27.067c0 5.435 4.406 9.841 9.841 9.841s9.841-4.406 9.841-9.841v-27.067h29.524v27.067c0 5.435 4.406 9.841 9.841 9.841s9.841-4.406 9.841-9.841v-27.067h29.524v27.067c0 5.435 4.406 9.841 9.841 9.841s9.841-4.406 9.841-9.841v-27.067h29.524v27.067c0 5.435 4.406 9.841 9.841 9.841s9.841-4.406 9.841-9.841v-27.067h29.523v27.067c0 5.435 4.407 9.841 9.841 9.841s9.841-4.406 9.841-9.841v-27.067h29.524v27.067c0 5.435 4.407 9.841 9.841 9.841s9.841-4.406 9.841-9.841v-27.067h29.524v27.067c0 5.435 4.407 9.841 9.841 9.841s9.841-4.406 9.841-9.841v-27.067h29.524v27.067c0 5.435 4.407 9.841 9.841 9.841s9.841-4.406 9.841-9.841v-27.067h15.746c5.426 0 9.841 4.415 9.841 9.841v49.209h-.001-187.97c-5.434 0-9.841 4.406-9.841 9.841s4.407 9.841 9.841 9.841h187.971.001v305.078c.002 5.427-4.413 9.842-9.839 9.842z"/><path d="m300.6 196.446-21.687-4.796-10.566-18.495c-1.626-2.875-4.003-5.284-6.873-6.966-4.345-2.548-9.422-3.25-14.294-1.98-4.874 1.271-8.96 4.364-11.5 8.696l-11.255 19.131-20.915 4.345c-3.198.662-6.194 2.168-8.662 4.353-7.785 6.889-8.516 18.829-1.623 26.619l14.726 16.628-2.333 21.295c-.348 3.243.158 6.54 1.465 9.54 3.09 7.09 10.039 11.326 17.319 11.326 2.511 0 5.063-.505 7.508-1.57l20.357-8.865 19.468 8.775c2.961 1.337 6.255 1.882 9.538 1.572 5.014-.473 9.544-2.872 12.755-6.753 3.212-3.881 4.719-8.781 4.243-13.819l-2.142-22.12 14.356-15.798c2.201-2.415 3.744-5.405 4.457-8.644 2.24-10.149-4.194-20.232-14.342-22.474zm-21.972 36.906c-1.868 2.055-2.78 4.803-2.512 7.568l2.426 25.042-22.163-9.99c-2.532-1.142-5.427-1.16-7.973-.051l-23.064 10.044 2.648-24.174c.302-2.759-.575-5.518-2.416-7.596l-16.677-18.828 23.799-4.944c2.719-.565 5.072-2.253 6.48-4.646l12.753-21.678 12.056 21.103c1.377 2.411 3.709 4.128 6.419 4.728l24.574 5.433z"/><path d="m132.857 163.365h-54.127c-16.279 0-29.524 13.244-29.524 29.524v63.968c0 16.279 13.244 29.524 29.524 29.524h54.127c16.279 0 29.524-13.244 29.524-29.524v-63.968c-.001-16.28-13.245-29.524-29.524-29.524zm9.841 93.491c0 5.426-4.415 9.841-9.841 9.841h-54.127c-5.426 0-9.841-4.415-9.841-9.841v-63.968c0-5.426 4.415-9.841 9.841-9.841h54.127c5.426 0 9.841 4.415 9.841 9.841z"/><path d="m425.141 163.365h-54.127c-16.279 0-29.524 13.244-29.524 29.524v63.968c0 16.279 13.244 29.524 29.524 29.524h54.127c16.279 0 29.524-13.244 29.524-29.524v-63.968c0-16.28-13.244-29.524-29.524-29.524zm9.842 93.491c0 5.426-4.415 9.841-9.841 9.841h-54.127c-5.426 0-9.841-4.415-9.841-9.841v-63.968c0-5.426 4.415-9.841 9.841-9.841h54.127c5.426 0 9.841 4.415 9.841 9.841z"/><path d="m132.857 315.904h-54.127c-16.279 0-29.524 13.244-29.524 29.524v63.968c0 16.279 13.244 29.524 29.524 29.524h54.127c16.279 0 29.524-13.244 29.524-29.524v-63.968c-.001-16.28-13.245-29.524-29.524-29.524zm9.841 93.491c0 5.426-4.415 9.841-9.841 9.841h-54.127c-5.426 0-9.841-4.415-9.841-9.841v-63.968c0-5.426 4.415-9.841 9.841-9.841h54.127c5.426 0 9.841 4.415 9.841 9.841z"/><path d="m425.141 315.904h-54.127c-16.279 0-29.524 13.244-29.524 29.524v63.968c0 16.279 13.244 29.524 29.524 29.524h54.127c16.279 0 29.524-13.244 29.524-29.524v-63.968c0-16.28-13.244-29.524-29.524-29.524zm9.842 93.491c0 5.426-4.415 9.841-9.841 9.841h-54.127c-5.426 0-9.841-4.415-9.841-9.841v-63.968c0-5.426 4.415-9.841 9.841-9.841h54.127c5.426 0 9.841 4.415 9.841 9.841z"/><path d="m278.999 315.904h-54.127c-16.279 0-29.524 13.244-29.524 29.524v63.968c0 16.279 13.244 29.524 29.524 29.524h54.127c16.279 0 29.524-13.244 29.524-29.524v-63.968c0-16.28-13.245-29.524-29.524-29.524zm9.841 93.491c0 5.426-4.415 9.841-9.841 9.841h-54.127c-5.426 0-9.841-4.415-9.841-9.841v-63.968c0-5.426 4.415-9.841 9.841-9.841h54.127c5.426 0 9.841 4.415 9.841 9.841z"/><path d="m251.936 143.682c5.435 0 9.841-4.406 9.841-9.841s-4.406-9.841-9.841-9.841h-.007c-5.435 0-9.837 4.406-9.837 9.841-.001 5.435 4.408 9.841 9.844 9.841z"/></g></g></g></svg>