<svg height="511pt" viewBox="-15 0 511 511.99988" width="511pt" xmlns="http://www.w3.org/2000/svg"><path d="m330.5 15.007812v422c0 8.398438-6.597656 15-15 15h-120c-8.402344 0-15-6.601562-15-15l-180-422c0-8.402343 6.597656-14.9999995 15-14.9999995h300c8.402344 0 15 6.5976565 15 14.9999995zm0 0" fill="#07485e"/><path d="m330.5 15.007812v422c0 8.398438-6.597656 15-15 15h-120c-8.402344 0-15-6.601562-15-15l-45-105v-331.9999995h180c8.402344 0 15 6.5976565 15 14.9999995zm0 0" fill="#03232e"/><path d="m202.097656 91.507812-180-90c-4.496094-2.101562-10.199218-2.101562-14.398437.601563-4.5 2.996094-7.199219 7.796875-7.199219 12.898437v422c0 6.597657 4.199219 12.300782 10.199219 14.097657l124.800781 41.703125 55.199219 18.296875c4.417969 1.769531 10.078125.769531 13.5-1.796875 3.902343-3 6.300781-7.5 6.300781-12.300782v-392c0-5.699218-3.300781-10.800781-8.402344-13.5zm0 0" fill="#ff8859"/><path d="m210.5 105.007812v392c0 4.800782-2.402344 9.300782-6.300781 12.300782-3.390625 2.542968-9.039063 3.585937-13.5 1.796875l-55.199219-18.296875v-434.601563l66.597656 33.300781c5.101563 2.699219 8.402344 7.800782 8.402344 13.5zm0 0" fill="#ff3939"/><path d="m368.425781 330.234375c-4.878906-2.605469-7.925781-7.6875-7.925781-13.226563v-15h-105c-8.292969 0-15-6.710937-15-15v-60c0-8.292968 6.707031-15 15-15h105v-15c0-5.539062 3.046875-10.621093 7.925781-13.230468 4.863281-2.589844 10.796875-2.296875 15.394531.75l90 60c4.175782 2.78125 6.679688 7.46875 6.679688 12.480468 0 5.007813-2.503906 9.695313-6.679688 12.476563l-90 60c-4.652343 3.105469-10.585937 3.332031-15.394531.75zm0 0" fill="#ff3939"/><path d="m150.5 227.007812v60c0 8.398438-6.597656 15-15 15s-15-6.601562-15-15v-60c0-8.402343 6.597656-15 15-15s15 6.597657 15 15zm0 0" fill="#fff5f5"/><path d="m150.5 227.007812v60c0 8.398438-6.597656 15-15 15v-90c8.402344 0 15 6.597657 15 15zm0 0" fill="#efe2dd"/></svg>