<svg id="Layer_1" enable-background="new 0 0 512.001 512.001" height="512" viewBox="0 0 512.001 512.001" width="512" xmlns="http://www.w3.org/2000/svg"><g><g><path d="m439.57 356.383c-5.666-5.666-13.199-8.786-21.212-8.786-8.014 0-15.547 3.121-21.212 8.786l-27.601 27.601-4.689-4.69c-5.666-5.666-13.199-8.786-21.212-8.786s-15.546 3.12-21.212 8.786c-11.696 11.696-11.696 30.728 0 42.424l25.901 25.901c5.666 5.666 13.199 8.786 21.212 8.786 8.014 0 15.547-3.121 21.212-8.786l48.813-48.812c11.696-11.697 11.696-30.728 0-42.424zm-14.143 28.281-48.813 48.813c-1.888 1.888-4.398 2.928-7.069 2.928s-5.182-1.04-7.069-2.929l-25.901-25.901c-3.898-3.897-3.898-10.24 0-14.139 1.888-1.889 4.398-2.929 7.069-2.929s5.182 1.04 7.069 2.929l11.761 11.762c1.875 1.875 4.419 2.929 7.071 2.929s5.196-1.054 7.071-2.929l34.672-34.673c1.888-1.888 4.398-2.928 7.069-2.928s5.182 1.04 7.069 2.929c3.9 3.898 3.9 10.24.001 14.138z"/><path d="m440.845 309.749c.099-2.633.156-5.229.156-7.748 0-46.195-15.005-88.944-40.38-123.657l20.946-20.948c3.77-3.77 5.846-8.792 5.846-14.142 0-5.351-2.076-10.374-5.846-14.143l-17.678-17.678c-3.77-3.77-8.792-5.846-14.142-5.846-.001 0 0 0-.001 0-5.351 0-10.373 2.077-14.142 5.846l-20.947 20.947c-27.059-19.781-59.003-33.249-93.657-38.228v-29.152h20c11.028 0 20-8.972 20-20v-25.001c0-11.027-8.971-19.999-20-19.999h-100c-11.028 0-20 8.972-20 19.999v25.001c0 11.028 8.972 20 20 20h20v29.153c-34.654 4.979-66.597 18.448-93.656 38.228l-20.948-20.948c-7.799-7.795-20.486-7.796-28.283.001l-17.68 17.679c-7.796 7.799-7.796 20.486.001 28.283l20.948 20.947c-25.377 34.713-40.382 77.463-40.382 123.658 0 39.585 11.087 78.158 32.063 111.551 1.899 3.024 5.151 4.682 8.478 4.682 1.817 0 3.657-.495 5.31-1.533 4.677-2.938 6.086-9.11 3.148-13.787-18.971-30.202-28.999-65.097-28.999-100.913 0-104.767 85.233-190 190-190 103.937 0 188.633 83.892 189.969 187.518-9.518-3.725-19.678-6.155-30.263-7.085-2.31-39.357-18.821-76.025-47.011-104.003-30.167-29.94-70.189-46.43-112.695-46.43-88.225 0-160 71.775-160 160s71.775 160.001 160 160.001c18.083 0 35.749-2.985 52.631-8.872 4.878 9.252 11.033 17.729 18.234 25.193-22.473 9.07-46.246 13.678-70.865 13.678-35.824 0-70.719-10.027-100.91-28.997-4.676-2.938-10.848-1.53-13.788 3.146-2.938 4.677-1.529 10.85 3.147 13.788 33.384 20.976 71.957 32.063 111.551 32.063 30.724 0 60.267-6.486 87.898-19.258 17.685 12.142 39.077 19.258 62.102 19.258 60.654 0 110-49.346 110-110 0-38.6-19.989-72.616-50.155-92.252zm-51.098-184.172 17.678 17.677-19.433 19.435c-5.539-6.235-11.442-12.138-17.678-17.678zm-208.748-105.577 100.001-.001v25.001h-100zm-126.423 123.255 17.678-17.678 19.434 19.434c-6.235 5.539-12.138 11.443-17.678 17.678zm166.424-51.01v-27.245h20.002v27.245c-3.315-.156-6.648-.244-10.001-.244s-6.686.087-10.001.244zm20 349.405v-9.649c0-5.522-4.478-10-10-10s-10 4.478-10 10v9.64c-31.093-2.205-59.414-14.603-81.627-33.871l6.774-6.775c3.905-3.905 3.905-10.236 0-14.142-3.906-3.906-10.238-3.904-14.143 0l-6.773 6.774c-19.268-22.213-31.665-50.534-33.87-81.627h9.64c5.522 0 10-4.478 10-10s-4.478-10-10-10h-9.64c2.205-31.093 14.602-59.414 33.87-81.626l6.774 6.774c1.953 1.952 4.512 2.929 7.071 2.929s5.118-.977 7.071-2.929c3.905-3.905 3.905-10.237 0-14.143l-6.774-6.774c22.212-19.268 50.534-31.665 81.626-33.87v9.64c0 5.522 4.478 10 10 10s10-4.478 10-10v-9.638c31.014 2.216 59.327 14.647 81.556 33.939l-6.703 6.703c-3.905 3.905-3.905 10.237 0 14.143 1.953 1.952 4.512 2.929 7.071 2.929s5.118-.977 7.071-2.929l6.704-6.704c19.383 22.331 31.844 50.815 33.959 82.046-55.821 5.23-99.657 52.344-99.657 109.51 0 11.352 1.729 22.308 4.937 32.619-11.294 3.833-22.986 6.191-34.937 7.031zm140 50.351c-49.626 0-89.999-40.374-89.999-90s40.373-90 89.999-90 90 40.374 90 90-40.374 90-90 90z"/><path d="m230.993 241.764c-19.299 0-35 15.7-35 34.999 0 5.522 4.478 10 10 10s10-4.478 10-10c0-8.271 6.729-14.999 15-14.999s15 6.729 15 14.999c0 4.006-1.598 7.811-4.5 10.712-11.615 11.614-20.5 21.549-20.5 34.756 0 5.522 4.478 10 10 10s10-4.478 10-10c0-4.465 3.694-9.667 14.643-20.613 6.679-6.68 10.357-15.506 10.357-24.854 0-19.3-15.701-35-35-35z"/><path d="m230.993 342.232c-5.522 0-10 4.478-10 10v.007c0 5.522 4.478 9.997 10 9.997s10-4.481 10-10.004-4.478-10-10-10z"/><path d="m95.986 435.734c-4.239-3.532-10.546-2.962-14.084 1.281l-.005.006c-3.535 4.242-2.959 10.545 1.283 14.081 1.869 1.557 4.138 2.316 6.395 2.316 2.867 0 5.714-1.227 7.692-3.601 3.535-4.241 2.962-10.546-1.281-14.083z"/></g></g></svg>